# MagicaVoxel @ Ephtracy

# material
mtllib corner.mtl
usemtl palette

# normals
vn -1 0 0
vn 1 0 0
vn 0 0 1
vn 0 0 -1
vn 0 -1 0
vn 0 1 0

# texcoords
vt 0.783203 0.5
vt 0.970703 0.5

# verts
v -63 0 21
v -63 0 -21
v -63 1 21
v -63 1 20
v -63 1 -20
v -63 1 -21
v -63 11 21
v -63 11 20
v -63 11 -20
v -63 11 -21
v -21 0 63
v -21 0 21
v -21 1 63
v -21 1 21
v -21 11 63
v -21 11 21
v 20 1 63
v 20 1 -20
v 20 11 63
v 20 11 -20
v -20 1 63
v -20 1 20
v -20 11 63
v -20 11 20
v 21 0 63
v 21 0 -21
v 21 1 63
v 21 1 -21
v 21 11 63
v 21 11 -21
v -21 0 63
v -21 1 63
v -21 11 63
v -20 1 63
v -20 11 63
v 20 1 63
v 20 11 63
v 21 0 63
v 21 1 63
v 21 11 63
v -63 0 21
v -63 1 21
v -63 11 21
v -21 0 21
v -21 1 21
v -21 11 21
v -63 1 -20
v -63 11 -20
v 20 1 -20
v 20 11 -20
v -63 1 20
v -63 11 20
v -20 1 20
v -20 11 20
v -63 0 -21
v -63 1 -21
v -63 11 -21
v 21 0 -21
v 21 1 -21
v 21 11 -21
v -21 0 63
v 21 0 63
v -63 0 21
v -21 0 21
v -63 0 -21
v 21 0 -21
v -20 1 63
v 20 1 63
v -63 1 20
v -20 1 20
v -63 1 -20
v 20 1 -20
v -21 11 63
v -20 11 63
v 20 11 63
v 21 11 63
v -63 11 21
v -21 11 21
v -63 11 20
v -20 11 20
v -63 11 -20
v 20 11 -20
v -63 11 -21
v 21 11 -21

# faces
f 3/2/1 2/2/1 1/2/1
f 4/2/1 2/2/1 3/2/1
f 5/2/1 2/2/1 4/2/1
f 6/2/1 2/2/1 5/2/1
f 7/1/1 4/1/1 3/1/1
f 8/1/1 4/1/1 7/1/1
f 9/1/1 6/1/1 5/1/1
f 10/1/1 6/1/1 9/1/1
f 13/2/1 12/2/1 11/2/1
f 14/2/1 12/2/1 13/2/1
f 15/1/1 14/1/1 13/1/1
f 16/1/1 14/1/1 15/1/1
f 19/1/1 18/1/1 17/1/1
f 20/1/1 18/1/1 19/1/1
f 21/1/2 22/1/2 23/1/2
f 23/1/2 22/1/2 24/1/2
f 25/2/2 26/2/2 27/2/2
f 27/2/2 26/2/2 28/2/2
f 27/1/2 28/1/2 29/1/2
f 29/1/2 28/1/2 30/1/2
f 34/2/3 32/2/3 31/2/3
f 34/1/3 33/1/3 32/1/3
f 35/1/3 33/1/3 34/1/3
f 36/2/3 34/2/3 31/2/3
f 38/2/3 36/2/3 31/2/3
f 39/1/3 37/1/3 36/1/3
f 39/2/3 36/2/3 38/2/3
f 40/1/3 37/1/3 39/1/3
f 44/2/3 42/2/3 41/2/3
f 45/1/3 43/1/3 42/1/3
f 45/2/3 42/2/3 44/2/3
f 46/1/3 43/1/3 45/1/3
f 49/1/3 48/1/3 47/1/3
f 50/1/3 48/1/3 49/1/3
f 51/1/4 52/1/4 53/1/4
f 53/1/4 52/1/4 54/1/4
f 55/2/4 56/2/4 58/2/4
f 56/1/4 57/1/4 59/1/4
f 58/2/4 56/2/4 59/2/4
f 59/1/4 57/1/4 60/1/4
f 64/2/5 62/2/5 61/2/5
f 65/2/5 64/2/5 63/2/5
f 66/2/5 62/2/5 64/2/5
f 66/2/5 64/2/5 65/2/5
f 67/2/6 68/2/6 70/2/6
f 69/2/6 70/2/6 71/2/6
f 70/2/6 68/2/6 72/2/6
f 71/2/6 70/2/6 72/2/6
f 73/1/6 74/1/6 78/1/6
f 77/1/6 78/1/6 79/1/6
f 78/1/6 74/1/6 80/1/6
f 79/1/6 78/1/6 80/1/6
f 75/1/6 76/1/6 82/1/6
f 81/1/6 82/1/6 83/1/6
f 82/1/6 76/1/6 84/1/6
f 83/1/6 82/1/6 84/1/6
