# MagicaVoxel @ Ephtracy

# material
mtllib hovercar.mtl
usemtl palette

# normals
vn -1 0 0
vn 1 0 0
vn 0 0 1
vn 0 0 -1
vn 0 -1 0
vn 0 1 0

# texcoords
vt 0.814453 0.5
vt 0.845703 0.5
vt 0.876953 0.5
vt 0.908203 0.5
vt 0.939453 0.5

# verts
v -18 8 9
v -18 8 5
v -18 8 -3
v -18 8 -7
v -18 9 9
v -18 9 5
v -18 9 -3
v -18 9 -7
v -18 10 8
v -18 10 5
v -18 10 -3
v -18 10 -6
v -18 11 8
v -18 11 5
v -18 11 -3
v -18 11 -6
v -18 12 9
v -18 12 5
v -18 12 -3
v -18 12 -7
v -18 13 9
v -18 13 5
v -18 13 -3
v -18 13 -7
v -17 9 7
v -17 9 6
v -17 9 3
v -17 9 -1
v -17 9 -4
v -17 9 -5
v -17 10 7
v -17 10 6
v -17 10 2
v -17 10 -0
v -17 10 -4
v -17 10 -5
v -17 11 7
v -17 11 6
v -17 11 -4
v -17 11 -5
v -17 12 7
v -17 12 6
v -17 12 2
v -17 12 -0
v -17 12 -4
v -17 12 -5
v -17 13 3
v -17 13 -1
v -15 8 4
v -15 8 -2
v -15 9 3
v -15 9 -1
v -15 10 5
v -15 10 4
v -15 10 2
v -15 10 -0
v -15 10 -2
v -15 10 -3
v -15 11 5
v -15 11 4
v -15 11 -2
v -15 11 -3
v -15 12 2
v -15 12 -0
v -15 13 3
v -15 13 -1
v -15 14 4
v -15 14 -2
v -13 8 5
v -13 8 -3
v -13 9 5
v -13 9 3
v -13 9 2
v -13 9 -0
v -13 9 -1
v -13 9 -3
v -13 12 5
v -13 12 3
v -13 12 -1
v -13 12 -3
v -13 13 5
v -13 13 3
v -13 13 -1
v -13 13 -3
v -12 9 6
v -12 9 3
v -12 9 -1
v -12 9 -4
v -12 10 6
v -12 10 5
v -12 10 -3
v -12 10 -4
v -12 11 6
v -12 11 5
v -12 11 -3
v -12 11 -4
v -12 12 6
v -12 12 3
v -12 12 -1
v -12 12 -4
v -12 14 5
v -12 14 -3
v -12 16 5
v -12 16 -3
v -11 13 4
v -11 13 -2
v -11 14 4
v -11 14 -2
v -11 16 4
v -11 16 -2
v -11 17 4
v -11 17 -2
v 3 8 9
v 3 8 6
v 3 8 -4
v 3 8 -7
v 3 9 9
v 3 9 6
v 3 9 -4
v 3 9 -7
v 3 12 9
v 3 12 6
v 3 12 -4
v 3 12 -7
v 3 13 9
v 3 13 6
v 3 13 -4
v 3 13 -7
v 4 9 8
v 4 9 5
v 4 9 -3
v 4 9 -6
v 4 10 7
v 4 10 5
v 4 10 -3
v 4 10 -5
v 4 11 7
v 4 11 5
v 4 11 -3
v 4 11 -5
v 4 12 8
v 4 12 5
v 4 12 -3
v 4 12 -6
v -14 8 4
v -14 8 -2
v -14 9 3
v -14 9 2
v -14 9 -0
v -14 9 -1
v -14 10 5
v -14 10 4
v -14 10 -2
v -14 10 -3
v -14 11 5
v -14 11 4
v -14 11 -2
v -14 11 -3
v -14 13 3
v -14 13 -1
v -14 14 4
v -14 14 -2
v -11 8 4
v -11 8 -2
v -11 9 4
v -11 9 -2
v -6 9 7
v -6 9 5
v -6 9 -3
v -6 9 -5
v -6 10 7
v -6 10 5
v -6 10 -3
v -6 10 -5
v -6 11 7
v -6 11 5
v -6 11 -3
v -6 11 -5
v -6 12 7
v -6 12 5
v -6 12 -3
v -6 12 -5
v -5 8 9
v -5 8 6
v -5 8 -4
v -5 8 -7
v -5 9 9
v -5 9 6
v -5 9 -4
v -5 9 -7
v -5 10 8
v -5 10 7
v -5 10 -5
v -5 10 -6
v -5 11 8
v -5 11 7
v -5 11 -5
v -5 11 -6
v -5 12 9
v -5 12 6
v -5 12 -4
v -5 12 -7
v -5 13 9
v -5 13 6
v -5 13 -4
v -5 13 -7
v -4 13 4
v -4 13 -2
v -4 14 4
v -4 14 -2
v -4 16 4
v -4 16 -2
v -4 17 4
v -4 17 -2
v -3 14 5
v -3 14 -3
v -3 16 5
v -3 16 -3
v -1 12 4
v -1 12 -2
v -1 13 4
v -1 13 -2
v 5 9 5
v 5 9 4
v 5 9 -2
v 5 9 -3
v 5 12 5
v 5 12 4
v 5 12 -2
v 5 12 -3
v 9 9 8
v 9 9 5
v 9 9 -3
v 9 9 -6
v 9 12 8
v 9 12 5
v 9 12 -3
v 9 12 -6
v 10 8 9
v 10 8 4
v 10 8 -2
v 10 8 -7
v 10 9 9
v 10 9 4
v 10 9 -2
v 10 9 -7
v 10 12 9
v 10 12 4
v 10 12 -2
v 10 12 -7
v 10 13 9
v 10 13 4
v 10 13 -2
v 10 13 -7
v -18 8 9
v -18 9 9
v -18 12 9
v -18 13 9
v -5 8 9
v -5 9 9
v -5 12 9
v -5 13 9
v 3 8 9
v 3 9 9
v 3 12 9
v 3 13 9
v 10 8 9
v 10 9 9
v 10 12 9
v 10 13 9
v -18 10 8
v -18 11 8
v -5 10 8
v -5 11 8
v 4 9 8
v 4 12 8
v 9 9 8
v 9 12 8
v -17 9 7
v -17 10 7
v -17 11 7
v -17 12 7
v -6 9 7
v -6 10 7
v -6 11 7
v -6 12 7
v -5 10 7
v -5 11 7
v 4 10 7
v 4 11 7
v -5 8 6
v -5 9 6
v -5 12 6
v -5 13 6
v 3 8 6
v 3 9 6
v 3 12 6
v 3 13 6
v -12 14 5
v -12 16 5
v -6 9 5
v -6 10 5
v -6 11 5
v -6 12 5
v -3 14 5
v -3 16 5
v 4 9 5
v 4 10 5
v 4 11 5
v 4 12 5
v -15 8 4
v -15 10 4
v -15 11 4
v -15 14 4
v -14 8 4
v -14 10 4
v -14 11 4
v -14 14 4
v -11 13 4
v -11 14 4
v -11 16 4
v -11 17 4
v -4 13 4
v -4 14 4
v -4 16 4
v -4 17 4
v -17 9 3
v -17 13 3
v -15 9 3
v -15 13 3
v -14 9 3
v -14 13 3
v -13 9 3
v -13 12 3
v -13 13 3
v -12 9 3
v -12 12 3
v -17 10 -0
v -17 12 -0
v -15 10 -0
v -15 12 -0
v -11 8 -2
v -11 9 -2
v -1 12 -2
v -1 13 -2
v 5 9 -2
v 5 12 -2
v 10 8 -2
v 10 9 -2
v 10 12 -2
v 10 13 -2
v -18 8 -3
v -18 9 -3
v -18 10 -3
v -18 11 -3
v -18 12 -3
v -18 13 -3
v -15 10 -3
v -15 11 -3
v -14 10 -3
v -14 11 -3
v -13 8 -3
v -13 9 -3
v -13 12 -3
v -13 13 -3
v -12 10 -3
v -12 11 -3
v 5 9 -3
v 5 12 -3
v 9 9 -3
v 9 12 -3
v -17 9 -4
v -17 10 -4
v -17 11 -4
v -17 12 -4
v -12 9 -4
v -12 10 -4
v -12 11 -4
v -12 12 -4
v -17 9 6
v -17 10 6
v -17 11 6
v -17 12 6
v -12 9 6
v -12 10 6
v -12 11 6
v -12 12 6
v -18 8 5
v -18 9 5
v -18 10 5
v -18 11 5
v -18 12 5
v -18 13 5
v -15 10 5
v -15 11 5
v -14 10 5
v -14 11 5
v -13 8 5
v -13 9 5
v -13 12 5
v -13 13 5
v -12 10 5
v -12 11 5
v 5 9 5
v 5 12 5
v 9 9 5
v 9 12 5
v -11 8 4
v -11 9 4
v -1 12 4
v -1 13 4
v 5 9 4
v 5 12 4
v 10 8 4
v 10 9 4
v 10 12 4
v 10 13 4
v -17 10 2
v -17 12 2
v -15 10 2
v -15 12 2
v -17 9 -1
v -17 13 -1
v -15 9 -1
v -15 13 -1
v -14 9 -1
v -14 13 -1
v -13 9 -1
v -13 12 -1
v -13 13 -1
v -12 9 -1
v -12 12 -1
v -15 8 -2
v -15 10 -2
v -15 11 -2
v -15 14 -2
v -14 8 -2
v -14 10 -2
v -14 11 -2
v -14 14 -2
v -11 13 -2
v -11 14 -2
v -11 16 -2
v -11 17 -2
v -4 13 -2
v -4 14 -2
v -4 16 -2
v -4 17 -2
v -12 14 -3
v -12 16 -3
v -6 9 -3
v -6 10 -3
v -6 11 -3
v -6 12 -3
v -3 14 -3
v -3 16 -3
v 4 9 -3
v 4 10 -3
v 4 11 -3
v 4 12 -3
v -5 8 -4
v -5 9 -4
v -5 12 -4
v -5 13 -4
v 3 8 -4
v 3 9 -4
v 3 12 -4
v 3 13 -4
v -17 9 -5
v -17 10 -5
v -17 11 -5
v -17 12 -5
v -6 9 -5
v -6 10 -5
v -6 11 -5
v -6 12 -5
v -5 10 -5
v -5 11 -5
v 4 10 -5
v 4 11 -5
v -18 10 -6
v -18 11 -6
v -5 10 -6
v -5 11 -6
v 4 9 -6
v 4 12 -6
v 9 9 -6
v 9 12 -6
v -18 8 -7
v -18 9 -7
v -18 12 -7
v -18 13 -7
v -5 8 -7
v -5 9 -7
v -5 12 -7
v -5 13 -7
v 3 8 -7
v 3 9 -7
v 3 12 -7
v 3 13 -7
v 10 8 -7
v 10 9 -7
v 10 12 -7
v 10 13 -7
v -18 8 9
v -5 8 9
v 3 8 9
v 10 8 9
v -5 8 6
v 3 8 6
v -18 8 5
v -13 8 5
v -15 8 4
v -14 8 4
v -11 8 4
v 10 8 4
v -15 8 -2
v -14 8 -2
v -11 8 -2
v 10 8 -2
v -18 8 -3
v -13 8 -3
v -5 8 -4
v 3 8 -4
v -18 8 -7
v -5 8 -7
v 3 8 -7
v 10 8 -7
v -11 9 4
v 5 9 4
v -17 9 3
v -15 9 3
v -14 9 3
v -13 9 3
v -14 9 2
v -13 9 2
v -14 9 -0
v -13 9 -0
v -17 9 -1
v -15 9 -1
v -14 9 -1
v -13 9 -1
v -11 9 -2
v 5 9 -2
v -18 10 8
v -5 10 8
v -17 10 7
v -6 10 7
v -5 10 7
v 4 10 7
v -17 10 6
v -12 10 6
v -18 10 5
v -15 10 5
v -14 10 5
v -12 10 5
v -6 10 5
v 4 10 5
v -15 10 4
v -14 10 4
v -15 10 -2
v -14 10 -2
v -18 10 -3
v -15 10 -3
v -14 10 -3
v -12 10 -3
v -6 10 -3
v 4 10 -3
v -17 10 -4
v -12 10 -4
v -17 10 -5
v -6 10 -5
v -5 10 -5
v 4 10 -5
v -18 10 -6
v -5 10 -6
v -18 12 9
v -5 12 9
v 3 12 9
v 10 12 9
v 4 12 8
v 9 12 8
v -17 12 7
v -6 12 7
v -17 12 6
v -12 12 6
v -5 12 6
v 3 12 6
v -18 12 5
v -13 12 5
v -6 12 5
v 4 12 5
v 5 12 5
v 9 12 5
v 5 12 4
v 10 12 4
v -13 12 3
v -12 12 3
v -17 12 2
v -15 12 2
v -17 12 -0
v -15 12 -0
v -13 12 -1
v -12 12 -1
v 5 12 -2
v 10 12 -2
v -18 12 -3
v -13 12 -3
v -6 12 -3
v 4 12 -3
v 5 12 -3
v 9 12 -3
v -17 12 -4
v -12 12 -4
v -5 12 -4
v 3 12 -4
v -17 12 -5
v -6 12 -5
v 4 12 -6
v 9 12 -6
v -18 12 -7
v -5 12 -7
v 3 12 -7
v 10 12 -7
v -12 14 5
v -3 14 5
v -11 14 4
v -4 14 4
v -11 14 -2
v -4 14 -2
v -12 14 -3
v -3 14 -3
v -18 9 9
v -5 9 9
v 3 9 9
v 10 9 9
v 4 9 8
v 9 9 8
v -17 9 7
v -6 9 7
v -17 9 6
v -12 9 6
v -5 9 6
v 3 9 6
v -18 9 5
v -13 9 5
v -6 9 5
v 4 9 5
v 5 9 5
v 9 9 5
v 5 9 4
v 10 9 4
v -13 9 3
v -12 9 3
v -13 9 -1
v -12 9 -1
v 5 9 -2
v 10 9 -2
v -18 9 -3
v -13 9 -3
v -6 9 -3
v 4 9 -3
v 5 9 -3
v 9 9 -3
v -17 9 -4
v -12 9 -4
v -5 9 -4
v 3 9 -4
v -17 9 -5
v -6 9 -5
v 4 9 -6
v 9 9 -6
v -18 9 -7
v -5 9 -7
v 3 9 -7
v 10 9 -7
v -17 10 2
v -15 10 2
v -17 10 -0
v -15 10 -0
v -18 11 8
v -5 11 8
v -17 11 7
v -6 11 7
v -5 11 7
v 4 11 7
v -17 11 6
v -12 11 6
v -18 11 5
v -15 11 5
v -14 11 5
v -12 11 5
v -6 11 5
v 4 11 5
v -15 11 4
v -14 11 4
v -15 11 -2
v -14 11 -2
v -18 11 -3
v -15 11 -3
v -14 11 -3
v -12 11 -3
v -6 11 -3
v 4 11 -3
v -17 11 -4
v -12 11 -4
v -17 11 -5
v -6 11 -5
v -5 11 -5
v 4 11 -5
v -18 11 -6
v -5 11 -6
v -1 12 4
v 5 12 4
v -1 12 -2
v 5 12 -2
v -18 13 9
v -5 13 9
v 3 13 9
v 10 13 9
v -5 13 6
v 3 13 6
v -18 13 5
v -13 13 5
v -11 13 4
v -4 13 4
v -1 13 4
v 10 13 4
v -17 13 3
v -15 13 3
v -14 13 3
v -13 13 3
v -12 13 3
v -17 13 -1
v -15 13 -1
v -14 13 -1
v -13 13 -1
v -12 13 -1
v -11 13 -2
v -4 13 -2
v -1 13 -2
v 10 13 -2
v -18 13 -3
v -13 13 -3
v -5 13 -4
v 3 13 -4
v -18 13 -7
v -5 13 -7
v 3 13 -7
v 10 13 -7
v -15 14 4
v -14 14 4
v -15 14 -2
v -14 14 -2
v -12 16 5
v -3 16 5
v -11 16 4
v -4 16 4
v -11 16 -2
v -4 16 -2
v -12 16 -3
v -3 16 -3
v -11 17 4
v -4 17 4
v -11 17 -2
v -4 17 -2

# faces
f 5/5/1 2/5/1 1/5/1
f 6/5/1 2/5/1 5/5/1
f 7/5/1 4/5/1 3/5/1
f 8/5/1 4/5/1 7/5/1
f 13/2/1 10/2/1 9/2/1
f 14/2/1 10/2/1 13/2/1
f 15/2/1 12/2/1 11/2/1
f 16/2/1 12/2/1 15/2/1
f 21/5/1 18/5/1 17/5/1
f 22/5/1 18/5/1 21/5/1
f 23/5/1 20/5/1 19/5/1
f 24/5/1 20/5/1 23/5/1
f 31/1/1 26/1/1 25/1/1
f 32/1/1 26/1/1 31/1/1
f 33/4/1 28/4/1 27/4/1
f 34/4/1 28/4/1 33/4/1
f 35/1/1 30/1/1 29/1/1
f 36/1/1 30/1/1 35/1/1
f 41/1/1 38/1/1 37/1/1
f 42/1/1 38/1/1 41/1/1
f 43/4/1 33/4/1 27/4/1
f 44/4/1 28/4/1 34/4/1
f 45/1/1 40/1/1 39/1/1
f 46/1/1 40/1/1 45/1/1
f 47/4/1 43/4/1 27/4/1
f 47/4/1 44/4/1 43/4/1
f 48/4/1 28/4/1 44/4/1
f 48/4/1 44/4/1 47/4/1
f 51/2/1 50/2/1 49/2/1
f 52/2/1 50/2/1 51/2/1
f 54/2/1 51/2/1 49/2/1
f 57/2/1 50/2/1 52/2/1
f 59/2/1 54/2/1 53/2/1
f 60/2/1 51/2/1 54/2/1
f 60/2/1 54/2/1 59/2/1
f 61/2/1 58/2/1 57/2/1
f 61/2/1 57/2/1 52/2/1
f 62/2/1 58/2/1 61/2/1
f 63/4/1 56/4/1 55/4/1
f 64/4/1 56/4/1 63/4/1
f 65/2/1 51/2/1 60/2/1
f 66/2/1 61/2/1 52/2/1
f 67/2/1 65/2/1 60/2/1
f 67/2/1 66/2/1 65/2/1
f 68/2/1 61/2/1 66/2/1
f 68/2/1 66/2/1 67/2/1
f 71/5/1 70/5/1 69/5/1
f 72/5/1 70/5/1 71/5/1
f 73/5/1 70/5/1 72/5/1
f 74/5/1 70/5/1 73/5/1
f 75/5/1 70/5/1 74/5/1
f 76/5/1 70/5/1 75/5/1
f 81/5/1 78/5/1 77/5/1
f 82/5/1 78/5/1 81/5/1
f 83/5/1 80/5/1 79/5/1
f 84/5/1 80/5/1 83/5/1
f 89/1/1 86/1/1 85/1/1
f 90/1/1 86/1/1 89/1/1
f 91/1/1 88/1/1 87/1/1
f 92/1/1 88/1/1 91/1/1
f 94/1/1 86/1/1 90/1/1
f 95/1/1 91/1/1 87/1/1
f 97/1/1 94/1/1 93/1/1
f 98/1/1 86/1/1 94/1/1
f 98/1/1 94/1/1 97/1/1
f 99/1/1 96/1/1 95/1/1
f 99/1/1 95/1/1 87/1/1
f 100/1/1 96/1/1 99/1/1
f 103/3/1 102/3/1 101/3/1
f 104/3/1 102/3/1 103/3/1
f 107/3/1 106/3/1 105/3/1
f 108/3/1 106/3/1 107/3/1
f 111/3/1 110/3/1 109/3/1
f 112/3/1 110/3/1 111/3/1
f 117/5/1 114/5/1 113/5/1
f 118/5/1 114/5/1 117/5/1
f 119/5/1 116/5/1 115/5/1
f 120/5/1 116/5/1 119/5/1
f 125/5/1 122/5/1 121/5/1
f 126/5/1 122/5/1 125/5/1
f 127/5/1 124/5/1 123/5/1
f 128/5/1 124/5/1 127/5/1
f 133/1/1 130/1/1 129/1/1
f 134/1/1 130/1/1 133/1/1
f 135/1/1 132/1/1 131/1/1
f 136/1/1 132/1/1 135/1/1
f 137/1/1 133/1/1 129/1/1
f 140/1/1 132/1/1 136/1/1
f 141/1/1 138/1/1 137/1/1
f 141/1/1 137/1/1 129/1/1
f 142/1/1 138/1/1 141/1/1
f 143/1/1 140/1/1 139/1/1
f 144/1/1 132/1/1 140/1/1
f 144/1/1 140/1/1 143/1/1
f 145/2/2 146/2/2 147/2/2
f 147/2/2 146/2/2 148/2/2
f 148/2/2 146/2/2 149/2/2
f 149/2/2 146/2/2 150/2/2
f 145/2/2 147/2/2 152/2/2
f 150/2/2 146/2/2 153/2/2
f 151/2/2 152/2/2 155/2/2
f 152/2/2 147/2/2 156/2/2
f 155/2/2 152/2/2 156/2/2
f 153/2/2 154/2/2 157/2/2
f 150/2/2 153/2/2 157/2/2
f 157/2/2 154/2/2 158/2/2
f 156/2/2 147/2/2 159/2/2
f 150/2/2 157/2/2 160/2/2
f 156/2/2 159/2/2 161/2/2
f 159/2/2 160/2/2 161/2/2
f 160/2/2 157/2/2 162/2/2
f 161/2/2 160/2/2 162/2/2
f 163/5/2 164/5/2 165/5/2
f 165/5/2 164/5/2 166/5/2
f 167/1/2 168/1/2 171/1/2
f 171/1/2 168/1/2 172/1/2
f 169/1/2 170/1/2 173/1/2
f 173/1/2 170/1/2 174/1/2
f 175/1/2 176/1/2 179/1/2
f 179/1/2 176/1/2 180/1/2
f 177/1/2 178/1/2 181/1/2
f 181/1/2 178/1/2 182/1/2
f 183/5/2 184/5/2 187/5/2
f 187/5/2 184/5/2 188/5/2
f 185/5/2 186/5/2 189/5/2
f 189/5/2 186/5/2 190/5/2
f 191/2/2 192/2/2 195/2/2
f 195/2/2 192/2/2 196/2/2
f 193/2/2 194/2/2 197/2/2
f 197/2/2 194/2/2 198/2/2
f 199/5/2 200/5/2 203/5/2
f 203/5/2 200/5/2 204/5/2
f 201/5/2 202/5/2 205/5/2
f 205/5/2 202/5/2 206/5/2
f 207/3/2 208/3/2 209/3/2
f 209/3/2 208/3/2 210/3/2
f 211/3/2 212/3/2 213/3/2
f 213/3/2 212/3/2 214/3/2
f 215/3/2 216/3/2 217/3/2
f 217/3/2 216/3/2 218/3/2
f 219/5/2 220/5/2 221/5/2
f 221/5/2 220/5/2 222/5/2
f 223/1/2 224/1/2 227/1/2
f 225/1/2 226/1/2 227/1/2
f 224/1/2 225/1/2 227/1/2
f 227/1/2 226/1/2 228/1/2
f 228/1/2 226/1/2 229/1/2
f 229/1/2 226/1/2 230/1/2
f 231/1/2 232/1/2 235/1/2
f 235/1/2 232/1/2 236/1/2
f 233/1/2 234/1/2 237/1/2
f 237/1/2 234/1/2 238/1/2
f 239/5/2 240/5/2 243/5/2
f 243/5/2 240/5/2 244/5/2
f 241/5/2 242/5/2 245/5/2
f 245/5/2 242/5/2 246/5/2
f 247/5/2 248/5/2 251/5/2
f 251/5/2 248/5/2 252/5/2
f 249/5/2 250/5/2 253/5/2
f 253/5/2 250/5/2 254/5/2
f 259/5/3 256/5/3 255/5/3
f 260/5/3 256/5/3 259/5/3
f 261/5/3 258/5/3 257/5/3
f 262/5/3 258/5/3 261/5/3
f 267/5/3 264/5/3 263/5/3
f 268/5/3 264/5/3 267/5/3
f 269/5/3 266/5/3 265/5/3
f 270/5/3 266/5/3 269/5/3
f 273/2/3 272/2/3 271/2/3
f 274/2/3 272/2/3 273/2/3
f 277/1/3 276/1/3 275/1/3
f 278/1/3 276/1/3 277/1/3
f 283/1/3 280/1/3 279/1/3
f 284/1/3 280/1/3 283/1/3
f 285/1/3 282/1/3 281/1/3
f 286/1/3 282/1/3 285/1/3
f 289/2/3 288/2/3 287/2/3
f 290/2/3 288/2/3 289/2/3
f 295/5/3 292/5/3 291/5/3
f 296/5/3 292/5/3 295/5/3
f 297/5/3 294/5/3 293/5/3
f 298/5/3 294/5/3 297/5/3
f 305/3/3 300/3/3 299/3/3
f 306/3/3 300/3/3 305/3/3
f 307/1/3 302/1/3 301/1/3
f 308/1/3 302/1/3 307/1/3
f 309/1/3 304/1/3 303/1/3
f 310/1/3 304/1/3 309/1/3
f 315/2/3 312/2/3 311/2/3
f 316/2/3 312/2/3 315/2/3
f 317/2/3 314/2/3 313/2/3
f 318/2/3 314/2/3 317/2/3
f 323/3/3 320/3/3 319/3/3
f 324/3/3 320/3/3 323/3/3
f 325/3/3 322/3/3 321/3/3
f 326/3/3 322/3/3 325/3/3
f 329/4/3 328/4/3 327/4/3
f 330/4/3 328/4/3 329/4/3
f 333/4/3 332/4/3 331/4/3
f 334/4/3 332/4/3 333/4/3
f 335/4/3 332/4/3 334/4/3
f 336/4/3 334/4/3 333/4/3
f 337/4/3 334/4/3 336/4/3
f 340/4/3 339/4/3 338/4/3
f 341/4/3 339/4/3 340/4/3
f 346/5/3 343/5/3 342/5/3
f 347/5/3 345/5/3 344/5/3
f 348/5/3 346/5/3 342/5/3
f 349/5/3 346/5/3 348/5/3
f 350/5/3 345/5/3 347/5/3
f 351/5/3 345/5/3 350/5/3
f 358/2/3 355/2/3 354/2/3
f 359/2/3 355/2/3 358/2/3
f 362/5/3 353/5/3 352/5/3
f 363/5/3 353/5/3 362/5/3
f 364/5/3 357/5/3 356/5/3
f 365/5/3 357/5/3 364/5/3
f 366/2/3 361/2/3 360/2/3
f 367/2/3 361/2/3 366/2/3
f 370/1/3 369/1/3 368/1/3
f 371/1/3 369/1/3 370/1/3
f 376/1/3 373/1/3 372/1/3
f 377/1/3 373/1/3 376/1/3
f 378/1/3 375/1/3 374/1/3
f 379/1/3 375/1/3 378/1/3
f 380/1/4 381/1/4 384/1/4
f 384/1/4 381/1/4 385/1/4
f 382/1/4 383/1/4 386/1/4
f 386/1/4 383/1/4 387/1/4
f 390/2/4 391/2/4 394/2/4
f 394/2/4 391/2/4 395/2/4
f 388/5/4 389/5/4 398/5/4
f 398/5/4 389/5/4 399/5/4
f 392/5/4 393/5/4 400/5/4
f 400/5/4 393/5/4 401/5/4
f 396/2/4 397/2/4 402/2/4
f 402/2/4 397/2/4 403/2/4
f 404/1/4 405/1/4 406/1/4
f 406/1/4 405/1/4 407/1/4
f 408/5/4 409/5/4 412/5/4
f 410/5/4 411/5/4 413/5/4
f 408/5/4 412/5/4 414/5/4
f 414/5/4 412/5/4 415/5/4
f 413/5/4 411/5/4 416/5/4
f 416/5/4 411/5/4 417/5/4
f 418/4/4 419/4/4 420/4/4
f 420/4/4 419/4/4 421/4/4
f 422/4/4 423/4/4 424/4/4
f 424/4/4 423/4/4 425/4/4
f 426/4/4 427/4/4 428/4/4
f 428/4/4 427/4/4 429/4/4
f 429/4/4 427/4/4 430/4/4
f 428/4/4 429/4/4 431/4/4
f 431/4/4 429/4/4 432/4/4
f 433/2/4 434/2/4 437/2/4
f 437/2/4 434/2/4 438/2/4
f 435/2/4 436/2/4 439/2/4
f 439/2/4 436/2/4 440/2/4
f 441/3/4 442/3/4 445/3/4
f 445/3/4 442/3/4 446/3/4
f 443/3/4 444/3/4 447/3/4
f 447/3/4 444/3/4 448/3/4
f 449/3/4 450/3/4 455/3/4
f 455/3/4 450/3/4 456/3/4
f 451/1/4 452/1/4 457/1/4
f 457/1/4 452/1/4 458/1/4
f 453/1/4 454/1/4 459/1/4
f 459/1/4 454/1/4 460/1/4
f 461/5/4 462/5/4 465/5/4
f 465/5/4 462/5/4 466/5/4
f 463/5/4 464/5/4 467/5/4
f 467/5/4 464/5/4 468/5/4
f 469/1/4 470/1/4 473/1/4
f 473/1/4 470/1/4 474/1/4
f 471/1/4 472/1/4 475/1/4
f 475/1/4 472/1/4 476/1/4
f 477/2/4 478/2/4 479/2/4
f 479/2/4 478/2/4 480/2/4
f 481/2/4 482/2/4 483/2/4
f 483/2/4 482/2/4 484/2/4
f 485/1/4 486/1/4 487/1/4
f 487/1/4 486/1/4 488/1/4
f 489/5/4 490/5/4 493/5/4
f 493/5/4 490/5/4 494/5/4
f 491/5/4 492/5/4 495/5/4
f 495/5/4 492/5/4 496/5/4
f 497/5/4 498/5/4 501/5/4
f 501/5/4 498/5/4 502/5/4
f 499/5/4 500/5/4 503/5/4
f 503/5/4 500/5/4 504/5/4
f 509/5/5 506/5/5 505/5/5
f 510/5/5 508/5/5 507/5/5
f 511/5/5 509/5/5 505/5/5
f 511/5/5 510/5/5 509/5/5
f 512/5/5 510/5/5 511/5/5
f 515/5/5 510/5/5 512/5/5
f 516/5/5 508/5/5 510/5/5
f 516/5/5 510/5/5 515/5/5
f 517/2/5 514/2/5 513/2/5
f 518/2/5 514/2/5 517/2/5
f 519/5/5 515/5/5 512/5/5
f 522/5/5 520/5/5 519/5/5
f 522/5/5 519/5/5 512/5/5
f 523/5/5 520/5/5 522/5/5
f 523/5/5 522/5/5 521/5/5
f 524/5/5 520/5/5 523/5/5
f 525/5/5 523/5/5 521/5/5
f 526/5/5 523/5/5 525/5/5
f 527/5/5 520/5/5 524/5/5
f 528/5/5 520/5/5 527/5/5
f 535/4/5 534/4/5 533/4/5
f 536/4/5 534/4/5 535/4/5
f 537/5/5 536/5/5 535/5/5
f 538/5/5 536/5/5 537/5/5
f 539/4/5 532/4/5 531/4/5
f 540/4/5 532/4/5 539/4/5
f 541/4/5 538/4/5 537/4/5
f 542/4/5 538/4/5 541/4/5
f 543/1/5 530/1/5 529/1/5
f 544/1/5 530/1/5 543/1/5
f 547/2/5 546/2/5 545/2/5
f 548/2/5 546/2/5 547/2/5
f 549/2/5 546/2/5 548/2/5
f 551/2/5 547/2/5 545/2/5
f 553/2/5 551/2/5 545/2/5
f 553/2/5 552/2/5 551/2/5
f 554/2/5 552/2/5 553/2/5
f 555/2/5 552/2/5 554/2/5
f 556/2/5 552/2/5 555/2/5
f 557/2/5 550/2/5 549/2/5
f 557/2/5 549/2/5 548/2/5
f 558/2/5 550/2/5 557/2/5
f 559/2/5 555/2/5 554/2/5
f 560/2/5 555/2/5 559/2/5
f 564/2/5 562/2/5 561/2/5
f 565/2/5 562/2/5 564/2/5
f 569/2/5 565/2/5 564/2/5
f 569/2/5 564/2/5 563/2/5
f 569/2/5 566/2/5 565/2/5
f 570/2/5 566/2/5 569/2/5
f 571/2/5 569/2/5 563/2/5
f 572/2/5 568/2/5 567/2/5
f 573/2/5 568/2/5 572/2/5
f 574/2/5 568/2/5 573/2/5
f 575/2/5 571/2/5 563/2/5
f 575/2/5 572/2/5 571/2/5
f 575/2/5 573/2/5 572/2/5
f 576/2/5 573/2/5 575/2/5
f 581/5/5 580/5/5 579/5/5
f 582/5/5 580/5/5 581/5/5
f 583/5/5 578/5/5 577/5/5
f 584/5/5 578/5/5 583/5/5
f 585/5/5 583/5/5 577/5/5
f 587/5/5 578/5/5 584/5/5
f 588/5/5 581/5/5 579/5/5
f 589/5/5 586/5/5 585/5/5
f 589/5/5 585/5/5 577/5/5
f 590/5/5 586/5/5 589/5/5
f 591/5/5 587/5/5 584/5/5
f 591/5/5 588/5/5 587/5/5
f 592/5/5 581/5/5 588/5/5
f 592/5/5 588/5/5 591/5/5
f 594/5/5 580/5/5 582/5/5
f 595/5/5 594/5/5 593/5/5
f 596/5/5 580/5/5 594/5/5
f 596/5/5 594/5/5 595/5/5
f 597/5/5 586/5/5 590/5/5
f 598/5/5 586/5/5 597/5/5
f 601/4/5 600/4/5 599/4/5
f 602/4/5 600/4/5 601/4/5
f 608/5/5 604/5/5 603/5/5
f 611/5/5 606/5/5 605/5/5
f 612/5/5 606/5/5 611/5/5
f 613/5/5 608/5/5 607/5/5
f 614/5/5 604/5/5 608/5/5
f 614/5/5 608/5/5 613/5/5
f 615/5/5 610/5/5 609/5/5
f 616/5/5 610/5/5 615/5/5
f 617/5/5 613/5/5 607/5/5
f 618/5/5 615/5/5 609/5/5
f 619/5/5 610/5/5 616/5/5
f 620/5/5 606/5/5 612/5/5
f 621/5/5 618/5/5 617/5/5
f 621/5/5 617/5/5 607/5/5
f 622/5/5 615/5/5 618/5/5
f 622/5/5 618/5/5 621/5/5
f 623/5/5 620/5/5 619/5/5
f 623/5/5 619/5/5 616/5/5
f 624/5/5 606/5/5 620/5/5
f 624/5/5 620/5/5 623/5/5
f 627/3/5 626/3/5 625/3/5
f 628/3/5 626/3/5 627/3/5
f 629/3/5 627/3/5 625/3/5
f 630/3/5 626/3/5 628/3/5
f 631/3/5 629/3/5 625/3/5
f 631/3/5 630/3/5 629/3/5
f 632/3/5 626/3/5 630/3/5
f 632/3/5 630/3/5 631/3/5
f 635/5/6 636/5/6 637/5/6
f 637/5/6 636/5/6 638/5/6
f 633/5/6 634/5/6 639/5/6
f 639/5/6 634/5/6 640/5/6
f 633/5/6 639/5/6 641/5/6
f 640/5/6 634/5/6 643/5/6
f 635/5/6 637/5/6 644/5/6
f 641/5/6 642/5/6 645/5/6
f 633/5/6 641/5/6 645/5/6
f 645/5/6 642/5/6 646/5/6
f 640/5/6 643/5/6 647/5/6
f 643/5/6 644/5/6 647/5/6
f 644/5/6 637/5/6 648/5/6
f 647/5/6 644/5/6 648/5/6
f 638/5/6 636/5/6 650/5/6
f 649/5/6 650/5/6 651/5/6
f 650/5/6 636/5/6 652/5/6
f 651/5/6 650/5/6 652/5/6
f 646/5/6 642/5/6 653/5/6
f 653/5/6 642/5/6 654/5/6
f 655/5/6 656/5/6 660/5/6
f 657/5/6 658/5/6 663/5/6
f 663/5/6 658/5/6 664/5/6
f 659/5/6 660/5/6 665/5/6
f 660/5/6 656/5/6 666/5/6
f 665/5/6 660/5/6 666/5/6
f 661/5/6 662/5/6 667/5/6
f 667/5/6 662/5/6 668/5/6
f 659/5/6 665/5/6 669/5/6
f 661/5/6 667/5/6 670/5/6
f 668/5/6 662/5/6 671/5/6
f 664/5/6 658/5/6 672/5/6
f 669/5/6 670/5/6 673/5/6
f 659/5/6 669/5/6 673/5/6
f 670/5/6 667/5/6 674/5/6
f 673/5/6 670/5/6 674/5/6
f 671/5/6 672/5/6 675/5/6
f 668/5/6 671/5/6 675/5/6
f 672/5/6 658/5/6 676/5/6
f 675/5/6 672/5/6 676/5/6
f 677/4/6 678/4/6 679/4/6
f 679/4/6 678/4/6 680/4/6
f 681/2/6 682/2/6 683/2/6
f 683/2/6 682/2/6 684/2/6
f 684/2/6 682/2/6 685/2/6
f 681/2/6 683/2/6 687/2/6
f 681/2/6 687/2/6 689/2/6
f 687/2/6 688/2/6 689/2/6
f 689/2/6 688/2/6 690/2/6
f 690/2/6 688/2/6 691/2/6
f 691/2/6 688/2/6 692/2/6
f 685/2/6 686/2/6 693/2/6
f 684/2/6 685/2/6 693/2/6
f 693/2/6 686/2/6 694/2/6
f 690/2/6 691/2/6 695/2/6
f 695/2/6 691/2/6 696/2/6
f 697/2/6 698/2/6 700/2/6
f 700/2/6 698/2/6 701/2/6
f 700/2/6 701/2/6 705/2/6
f 699/2/6 700/2/6 705/2/6
f 701/2/6 702/2/6 705/2/6
f 705/2/6 702/2/6 706/2/6
f 699/2/6 705/2/6 707/2/6
f 703/2/6 704/2/6 708/2/6
f 708/2/6 704/2/6 709/2/6
f 709/2/6 704/2/6 710/2/6
f 699/2/6 707/2/6 711/2/6
f 707/2/6 708/2/6 711/2/6
f 708/2/6 709/2/6 711/2/6
f 711/2/6 709/2/6 712/2/6
f 713/1/6 714/1/6 715/1/6
f 715/1/6 714/1/6 716/1/6
f 717/5/6 718/5/6 721/5/6
f 719/5/6 720/5/6 722/5/6
f 717/5/6 721/5/6 723/5/6
f 721/5/6 722/5/6 723/5/6
f 723/5/6 722/5/6 724/5/6
f 724/5/6 722/5/6 725/5/6
f 725/5/6 722/5/6 726/5/6
f 726/5/6 722/5/6 727/5/6
f 722/5/6 720/5/6 728/5/6
f 727/5/6 722/5/6 728/5/6
f 724/5/6 725/5/6 732/5/6
f 732/5/6 725/5/6 733/5/6
f 729/4/6 730/4/6 734/4/6
f 734/4/6 730/4/6 735/4/6
f 731/4/6 732/4/6 736/4/6
f 732/4/6 733/4/6 736/4/6
f 736/4/6 733/4/6 737/4/6
f 733/5/6 725/5/6 738/5/6
f 737/4/6 733/4/6 738/4/6
f 738/5/6 725/5/6 739/5/6
f 737/5/6 738/5/6 739/5/6
f 726/5/6 727/5/6 740/5/6
f 740/5/6 727/5/6 741/5/6
f 737/5/6 739/5/6 744/5/6
f 741/5/6 742/5/6 744/5/6
f 740/5/6 741/5/6 744/5/6
f 739/5/6 740/5/6 744/5/6
f 744/5/6 742/5/6 745/5/6
f 743/5/6 744/5/6 745/5/6
f 745/5/6 742/5/6 746/5/6
f 743/5/6 745/5/6 747/5/6
f 747/5/6 745/5/6 748/5/6
f 746/5/6 742/5/6 749/5/6
f 749/5/6 742/5/6 750/5/6
f 751/2/6 752/2/6 753/2/6
f 753/2/6 752/2/6 754/2/6
f 755/3/6 756/3/6 757/3/6
f 757/3/6 756/3/6 758/3/6
f 755/3/6 757/3/6 759/3/6
f 758/3/6 756/3/6 760/3/6
f 755/3/6 759/3/6 761/3/6
f 759/3/6 760/3/6 761/3/6
f 760/3/6 756/3/6 762/3/6
f 761/3/6 760/3/6 762/3/6
f 763/3/6 764/3/6 765/3/6
f 765/3/6 764/3/6 766/3/6
